<svg id="svg" version="1.1" xmlns="http://www.w3.org/2000/svg" xmlns:xlink="http://www.w3.org/1999/xlink" width="400" height="159.90510083036773" viewBox="0, 0, 400,159.90510083036773"><g id="svgg"><path id="path0" d="M163.754 0.375 C 163.271 1.844,163.167 2.239,163.167 2.589 C 163.167 2.815,163.094 3.000,163.006 3.000 C 162.917 3.000,162.795 3.375,162.734 3.833 C 162.673 4.292,162.565 4.667,162.494 4.667 C 162.422 4.667,162.275 5.192,162.167 5.833 C 162.058 6.475,161.911 7.000,161.840 7.000 C 161.768 7.000,161.660 7.375,161.599 7.833 C 161.538 8.292,161.426 8.667,161.349 8.667 C 161.272 8.667,161.160 9.039,161.100 9.493 C 161.040 9.948,160.911 10.369,160.814 10.429 C 160.717 10.489,160.675 10.679,160.720 10.852 C 160.765 11.025,160.736 11.207,160.656 11.257 C 160.575 11.306,160.460 11.719,160.400 12.174 C 160.340 12.628,160.228 13.000,160.151 13.000 C 160.074 13.000,159.962 13.375,159.901 13.833 C 159.840 14.292,159.730 14.667,159.655 14.667 C 159.581 14.667,159.470 15.005,159.408 15.419 C 159.346 15.832,159.235 16.208,159.162 16.253 C 159.090 16.298,158.936 16.859,158.822 17.501 C 158.707 18.142,158.557 18.667,158.489 18.667 C 158.421 18.667,158.313 19.042,158.250 19.500 C 158.187 19.958,158.076 20.333,158.003 20.333 C 157.931 20.333,157.819 20.680,157.756 21.105 C 157.692 21.529,157.604 21.970,157.560 22.085 C 157.468 22.323,158.188 23.167,158.483 23.167 C 158.590 23.167,158.719 23.276,158.771 23.410 C 158.822 23.544,158.999 23.697,159.165 23.749 C 159.425 23.832,160.013 24.310,161.014 25.252 C 161.159 25.388,161.354 25.500,161.447 25.500 C 161.540 25.500,161.908 25.764,162.266 26.087 C 163.292 27.014,163.489 27.167,163.658 27.167 C 163.745 27.167,163.877 27.265,163.950 27.384 C 164.023 27.504,164.383 27.823,164.750 28.093 C 165.117 28.362,165.442 28.640,165.472 28.708 C 165.503 28.777,165.630 28.833,165.756 28.833 C 165.881 28.833,166.043 28.931,166.117 29.051 C 166.190 29.170,166.550 29.489,166.917 29.758 C 167.283 30.028,167.621 30.286,167.667 30.332 C 167.907 30.574,169.193 31.167,169.477 31.167 C 169.658 31.167,169.837 31.260,169.875 31.375 C 170.119 32.108,191.500 31.559,191.500 30.819 C 191.500 30.755,191.700 30.653,191.945 30.591 C 192.352 30.489,194.000 29.011,194.000 28.748 C 194.000 28.687,194.148 28.448,194.329 28.218 C 194.510 27.988,194.706 27.545,194.764 27.233 C 194.823 26.922,194.927 26.667,194.997 26.667 C 195.067 26.667,195.173 26.292,195.234 25.833 C 195.295 25.375,195.408 25.000,195.484 25.000 C 195.561 25.000,195.673 24.625,195.734 24.167 C 195.795 23.708,195.900 23.333,195.968 23.333 C 196.035 23.333,196.186 22.829,196.303 22.213 C 196.420 21.597,196.577 21.054,196.651 21.005 C 196.726 20.956,196.839 20.562,196.903 20.129 C 196.967 19.696,197.080 19.304,197.153 19.258 C 197.227 19.213,197.388 18.611,197.510 17.921 C 197.633 17.231,197.790 16.667,197.861 16.667 C 197.931 16.667,198.038 16.292,198.099 15.833 C 198.160 15.375,198.272 15.000,198.349 15.000 C 198.426 15.000,198.538 14.625,198.599 14.167 C 198.660 13.708,198.768 13.333,198.840 13.333 C 198.911 13.333,199.058 12.808,199.167 12.167 C 199.275 11.525,199.422 11.000,199.494 11.000 C 199.565 11.000,199.673 10.625,199.734 10.167 C 199.795 9.708,199.910 9.333,199.990 9.333 C 200.070 9.333,200.187 8.958,200.250 8.500 C 200.313 8.042,200.422 7.667,200.492 7.667 C 200.562 7.667,200.716 7.104,200.833 6.417 C 200.951 5.729,201.105 5.167,201.175 5.167 C 201.245 5.167,201.354 4.792,201.417 4.333 C 201.480 3.875,201.591 3.500,201.663 3.500 C 201.736 3.500,201.849 3.144,201.913 2.708 C 201.978 2.273,202.096 1.838,202.175 1.742 C 202.254 1.646,202.369 1.252,202.431 0.867 L 202.543 0.167 183.183 0.167 C 167.842 0.167,163.809 0.210,163.754 0.375 M224.708 0.277 C 224.594 0.323,224.500 0.533,224.500 0.742 C 224.500 0.952,224.347 1.602,224.159 2.187 C 223.971 2.771,223.774 3.569,223.720 3.958 C 223.666 4.348,223.563 4.667,223.492 4.667 C 223.421 4.667,223.312 4.966,223.250 5.332 C 223.188 5.699,223.080 6.034,223.009 6.078 C 222.938 6.122,222.779 6.722,222.657 7.412 C 222.534 8.102,222.376 8.667,222.306 8.667 C 222.236 8.667,222.128 9.042,222.068 9.500 C 222.007 9.958,221.894 10.333,221.818 10.333 C 221.741 10.333,221.628 10.708,221.568 11.167 C 221.507 11.625,221.398 12.000,221.327 12.000 C 221.255 12.000,221.108 12.525,221.000 13.167 C 220.892 13.808,220.745 14.333,220.673 14.333 C 220.602 14.333,220.493 14.708,220.432 15.167 C 220.372 15.625,220.260 16.000,220.184 16.000 C 220.108 16.000,219.998 16.349,219.939 16.775 C 219.881 17.201,219.749 17.651,219.647 17.774 C 219.544 17.897,219.500 18.149,219.548 18.332 C 219.596 18.516,219.570 18.667,219.490 18.667 C 219.410 18.667,219.295 19.042,219.234 19.500 C 219.173 19.958,219.061 20.333,218.984 20.333 C 218.908 20.333,218.795 20.708,218.734 21.167 C 218.673 21.625,218.561 22.000,218.484 22.000 C 218.408 22.000,218.295 22.375,218.234 22.833 C 218.173 23.292,218.065 23.667,217.994 23.667 C 217.922 23.667,217.775 24.192,217.667 24.833 C 217.558 25.475,217.411 26.000,217.340 26.000 C 217.268 26.000,217.160 26.375,217.099 26.833 C 217.038 27.292,216.923 27.667,216.843 27.667 C 216.762 27.667,216.608 28.192,216.500 28.833 C 216.392 29.475,216.245 30.000,216.173 30.000 C 216.102 30.000,215.993 30.375,215.932 30.833 C 215.872 31.292,215.759 31.667,215.682 31.667 C 215.606 31.667,215.494 32.039,215.433 32.493 C 215.373 32.948,215.261 33.358,215.185 33.405 C 215.109 33.453,214.946 34.056,214.823 34.746 C 214.701 35.436,214.543 36.000,214.473 36.000 C 214.402 36.000,214.295 36.375,214.234 36.833 C 214.173 37.292,214.061 37.667,213.984 37.667 C 213.908 37.667,213.795 38.042,213.734 38.500 C 213.673 38.958,213.550 39.333,213.459 39.333 C 213.369 39.333,213.334 39.483,213.382 39.667 C 213.430 39.850,213.408 40.000,213.333 40.000 C 213.259 40.000,213.146 40.375,213.083 40.833 C 213.020 41.292,212.908 41.667,212.833 41.667 C 212.759 41.667,212.646 42.042,212.583 42.500 C 212.520 42.958,212.408 43.333,212.333 43.333 C 212.259 43.333,212.146 43.708,212.083 44.166 C 212.020 44.625,211.908 45.037,211.833 45.084 C 211.758 45.130,211.603 45.693,211.488 46.334 C 211.374 46.975,211.224 47.500,211.156 47.500 C 211.087 47.500,210.980 47.875,210.917 48.333 C 210.854 48.792,210.746 49.167,210.678 49.167 C 210.609 49.167,210.460 49.691,210.345 50.333 C 210.230 50.974,210.073 51.538,209.995 51.587 C 209.916 51.635,209.802 52.011,209.740 52.423 C 209.679 52.834,209.566 53.209,209.490 53.256 C 209.415 53.303,209.302 53.678,209.240 54.089 C 209.179 54.501,209.069 54.874,208.996 54.919 C 208.923 54.964,208.770 55.526,208.655 56.167 C 208.540 56.809,208.391 57.333,208.322 57.333 C 208.254 57.333,208.146 57.708,208.083 58.167 C 208.020 58.625,207.908 59.000,207.833 59.000 C 207.759 59.000,207.646 59.375,207.583 59.833 C 207.520 60.292,207.411 60.667,207.341 60.667 C 207.271 60.667,207.118 61.229,207.000 61.917 C 206.882 62.604,206.729 63.167,206.659 63.167 C 206.589 63.167,206.480 63.542,206.417 64.000 C 206.354 64.458,206.241 64.833,206.166 64.833 C 206.091 64.833,205.980 65.152,205.919 65.542 C 205.859 65.931,205.711 66.475,205.590 66.750 C 205.470 67.025,205.321 67.606,205.259 68.042 C 205.197 68.477,205.086 68.833,205.011 68.833 C 204.937 68.833,204.827 69.205,204.767 69.660 C 204.706 70.114,204.584 70.531,204.495 70.586 C 204.406 70.641,204.333 70.822,204.333 70.988 C 204.333 71.154,204.180 71.768,203.992 72.353 C 203.805 72.938,203.607 73.735,203.553 74.125 C 203.499 74.515,203.394 74.833,203.321 74.833 C 203.247 74.833,203.136 75.171,203.075 75.583 C 203.013 75.996,202.906 76.333,202.837 76.333 C 202.768 76.333,202.611 76.896,202.489 77.583 C 202.367 78.271,202.210 78.833,202.139 78.833 C 202.069 78.833,201.962 79.208,201.901 79.667 C 201.840 80.125,201.728 80.500,201.651 80.500 C 201.574 80.500,201.462 80.875,201.401 81.333 C 201.340 81.792,201.232 82.167,201.160 82.167 C 201.089 82.167,200.942 82.692,200.833 83.333 C 200.725 83.975,200.578 84.500,200.506 84.500 C 200.435 84.500,200.327 84.872,200.267 85.326 C 200.206 85.781,200.093 86.193,200.014 86.241 C 199.936 86.290,199.821 86.666,199.760 87.077 C 199.698 87.489,199.587 87.863,199.513 87.908 C 199.440 87.954,199.279 88.556,199.157 89.246 C 199.034 89.936,198.876 90.500,198.806 90.500 C 198.736 90.500,198.628 90.875,198.568 91.333 C 198.507 91.792,198.394 92.167,198.318 92.167 C 198.241 92.167,198.128 92.542,198.068 93.000 C 198.007 93.458,197.898 93.833,197.827 93.833 C 197.755 93.833,197.608 94.358,197.500 95.000 C 197.392 95.642,197.245 96.167,197.173 96.167 C 197.102 96.167,196.993 96.542,196.932 97.000 C 196.872 97.458,196.767 97.833,196.699 97.833 C 196.631 97.833,196.480 98.337,196.364 98.953 C 196.247 99.569,196.090 100.113,196.015 100.162 C 195.941 100.210,195.827 100.606,195.763 101.042 C 195.699 101.477,195.586 101.833,195.511 101.833 C 195.437 101.833,195.327 102.205,195.267 102.660 C 195.206 103.114,195.095 103.525,195.018 103.572 C 194.942 103.619,194.779 104.222,194.657 104.912 C 194.534 105.602,194.376 106.167,194.306 106.167 C 194.236 106.167,194.128 106.542,194.068 107.000 C 194.007 107.458,193.894 107.833,193.818 107.833 C 193.741 107.833,193.628 108.208,193.568 108.667 C 193.507 109.125,193.398 109.500,193.327 109.500 C 193.255 109.500,193.108 110.025,193.000 110.667 C 192.892 111.308,192.745 111.833,192.673 111.833 C 192.602 111.833,192.493 112.208,192.432 112.667 C 192.372 113.125,192.259 113.500,192.182 113.500 C 192.106 113.500,191.994 113.872,191.933 114.326 C 191.873 114.781,191.764 115.190,191.690 115.236 C 191.616 115.281,191.457 115.847,191.335 116.492 C 191.213 117.138,191.057 117.667,190.989 117.667 C 190.921 117.667,190.813 118.042,190.750 118.500 C 190.687 118.958,190.578 119.333,190.508 119.333 C 190.438 119.333,190.284 119.896,190.167 120.583 C 190.049 121.271,189.891 121.833,189.815 121.833 C 189.740 121.833,189.628 122.208,189.568 122.667 C 189.507 123.125,189.394 123.500,189.318 123.500 C 189.241 123.500,189.128 123.875,189.068 124.333 C 189.007 124.792,188.898 125.167,188.827 125.167 C 188.755 125.167,188.608 125.692,188.500 126.333 C 188.392 126.975,188.242 127.500,188.167 127.500 C 188.092 127.500,187.980 127.875,187.917 128.333 C 187.854 128.792,187.743 129.167,187.670 129.167 C 187.597 129.167,187.485 129.523,187.420 129.958 C 187.355 130.394,187.226 130.843,187.132 130.956 C 187.039 131.070,187.006 131.276,187.059 131.415 C 187.113 131.553,187.091 131.667,187.010 131.667 C 186.930 131.667,186.813 132.042,186.750 132.500 C 186.687 132.958,186.574 133.333,186.500 133.333 C 186.426 133.333,186.313 133.708,186.250 134.167 C 186.187 134.625,186.074 135.000,186.000 135.000 C 185.926 135.000,185.813 135.375,185.750 135.833 C 185.687 136.291,185.574 136.704,185.499 136.750 C 185.425 136.797,185.270 137.359,185.155 138.001 C 185.040 138.642,184.892 139.167,184.826 139.167 C 184.759 139.167,184.654 139.502,184.593 139.913 C 184.531 140.323,184.410 140.703,184.324 140.756 C 184.237 140.809,184.167 140.989,184.167 141.155 C 184.167 141.321,184.013 141.935,183.826 142.520 C 183.638 143.105,183.440 143.902,183.386 144.292 C 183.332 144.681,183.228 145.000,183.154 145.000 C 183.081 145.000,182.970 145.337,182.908 145.750 C 182.846 146.162,182.740 146.500,182.671 146.500 C 182.603 146.500,182.451 147.063,182.333 147.750 C 182.216 148.438,182.062 149.000,181.992 149.000 C 181.922 149.000,181.813 149.375,181.750 149.833 C 181.687 150.292,181.574 150.667,181.500 150.667 C 181.426 150.667,181.313 151.042,181.250 151.500 C 181.187 151.958,181.079 152.333,181.011 152.333 C 180.943 152.333,180.793 152.858,180.678 153.499 C 180.564 154.141,180.410 154.702,180.338 154.747 C 180.265 154.792,180.155 155.166,180.093 155.577 C 180.031 155.989,179.920 156.363,179.846 156.409 C 179.771 156.455,179.660 156.809,179.598 157.196 C 179.536 157.583,179.421 157.979,179.342 158.075 C 179.263 158.171,179.145 158.606,179.080 159.042 L 178.962 159.833 222.224 159.833 C 264.402 159.833,268.000 159.795,268.000 159.340 C 268.000 159.274,268.412 159.127,268.917 159.015 C 269.421 158.902,269.833 158.746,269.833 158.668 C 269.833 158.590,270.052 158.478,270.319 158.420 C 270.587 158.361,270.847 158.205,270.898 158.073 C 270.948 157.941,271.104 157.833,271.245 157.833 C 271.385 157.833,271.500 157.763,271.500 157.678 C 271.500 157.592,271.654 157.474,271.842 157.414 C 272.311 157.265,275.101 154.419,275.367 153.819 C 275.485 153.552,275.638 153.333,275.707 153.333 C 275.777 153.333,275.833 153.251,275.833 153.151 C 275.833 153.051,275.983 152.779,276.167 152.545 C 276.350 152.312,276.500 151.950,276.500 151.739 C 276.500 151.529,276.603 151.254,276.730 151.127 C 276.856 151.001,277.013 150.583,277.078 150.199 C 277.143 149.814,277.255 149.500,277.327 149.500 C 277.398 149.500,277.507 149.125,277.568 148.667 C 277.628 148.208,277.737 147.833,277.810 147.833 C 277.882 147.833,278.043 147.233,278.167 146.500 C 278.291 145.767,278.449 145.167,278.519 145.167 C 278.589 145.167,278.697 144.828,278.759 144.415 C 278.821 144.001,278.934 143.624,279.010 143.577 C 279.085 143.531,279.198 143.156,279.260 142.744 C 279.321 142.333,279.431 141.959,279.504 141.914 C 279.577 141.869,279.730 141.307,279.845 140.666 C 279.960 140.025,280.109 139.500,280.178 139.500 C 280.246 139.500,280.354 139.125,280.417 138.667 C 280.480 138.208,280.592 137.833,280.667 137.833 C 280.741 137.833,280.854 137.458,280.917 137.000 C 280.980 136.542,281.089 136.167,281.159 136.167 C 281.229 136.167,281.382 135.604,281.500 134.917 C 281.618 134.229,281.776 133.667,281.851 133.667 C 281.927 133.667,282.038 133.292,282.099 132.833 C 282.160 132.375,282.268 132.000,282.339 132.000 C 282.410 132.000,282.520 131.625,282.583 131.167 C 282.646 130.708,282.759 130.333,282.834 130.333 C 282.909 130.333,283.064 129.808,283.178 129.167 C 283.293 128.525,283.443 128.000,283.511 128.000 C 283.579 128.000,283.687 127.625,283.750 127.167 C 283.813 126.708,283.922 126.333,283.992 126.333 C 284.062 126.333,284.216 125.771,284.333 125.083 C 284.451 124.396,284.605 123.833,284.675 123.833 C 284.745 123.833,284.854 123.458,284.917 123.000 C 284.980 122.542,285.092 122.167,285.167 122.167 C 285.241 122.167,285.354 121.792,285.417 121.333 C 285.480 120.875,285.589 120.500,285.659 120.500 C 285.729 120.500,285.882 119.938,286.000 119.250 C 286.118 118.563,286.276 118.000,286.351 118.000 C 286.427 118.000,286.538 117.625,286.599 117.167 C 286.660 116.708,286.772 116.333,286.849 116.333 C 286.926 116.333,287.038 115.958,287.099 115.500 C 287.160 115.042,287.268 114.667,287.340 114.667 C 287.411 114.667,287.558 114.142,287.667 113.500 C 287.775 112.858,287.922 112.333,287.994 112.333 C 288.065 112.333,288.173 111.958,288.234 111.500 C 288.295 111.042,288.408 110.667,288.484 110.667 C 288.561 110.667,288.673 110.295,288.733 109.840 C 288.794 109.386,288.905 108.975,288.982 108.928 C 289.058 108.881,289.221 108.278,289.343 107.588 C 289.466 106.898,289.620 106.333,289.685 106.333 C 289.751 106.333,289.855 106.034,289.917 105.668 C 289.978 105.301,290.087 104.966,290.158 104.922 C 290.229 104.878,290.388 104.278,290.510 103.588 C 290.633 102.898,290.790 102.333,290.861 102.333 C 290.931 102.333,291.038 101.958,291.099 101.500 C 291.160 101.042,291.272 100.667,291.349 100.667 C 291.426 100.667,291.538 100.292,291.599 99.833 C 291.660 99.375,291.768 99.000,291.840 99.000 C 291.911 99.000,292.058 98.475,292.167 97.833 C 292.275 97.192,292.422 96.667,292.494 96.667 C 292.565 96.667,292.673 96.292,292.734 95.833 C 292.795 95.375,292.908 95.000,292.984 95.000 C 293.061 95.000,293.173 94.628,293.233 94.174 C 293.294 93.719,293.405 93.308,293.482 93.261 C 293.558 93.214,293.721 92.611,293.843 91.921 C 293.966 91.231,294.124 90.667,294.194 90.667 C 294.264 90.667,294.372 90.292,294.432 89.833 C 294.493 89.375,294.606 89.000,294.682 89.000 C 294.759 89.000,294.872 88.625,294.932 88.167 C 294.993 87.708,295.102 87.333,295.173 87.333 C 295.245 87.333,295.392 86.808,295.500 86.167 C 295.608 85.525,295.755 85.000,295.827 85.000 C 295.898 85.000,296.007 84.625,296.068 84.167 C 296.128 83.708,296.233 83.333,296.301 83.333 C 296.369 83.333,296.520 82.829,296.636 82.213 C 296.753 81.597,296.910 81.054,296.985 81.005 C 297.059 80.956,297.173 80.560,297.237 80.125 C 297.301 79.690,297.414 79.333,297.489 79.333 C 297.563 79.333,297.673 78.961,297.733 78.507 C 297.794 78.052,297.905 77.642,297.982 77.595 C 298.058 77.547,298.221 76.944,298.343 76.254 C 298.466 75.564,298.624 75.000,298.694 75.000 C 298.764 75.000,298.872 74.625,298.932 74.167 C 298.993 73.708,299.106 73.333,299.182 73.333 C 299.259 73.333,299.372 72.958,299.432 72.500 C 299.493 72.042,299.602 71.667,299.673 71.667 C 299.745 71.667,299.892 71.142,300.000 70.500 C 300.108 69.858,300.260 69.333,300.338 69.333 C 300.416 69.333,300.532 68.808,300.595 68.167 C 300.658 67.525,300.775 67.000,300.855 67.000 C 301.044 67.000,301.044 66.213,300.855 66.097 C 300.775 66.047,300.675 65.645,300.632 65.203 C 300.483 63.648,299.216 61.707,297.808 60.875 C 297.547 60.721,297.333 60.536,297.333 60.464 C 297.333 60.392,297.253 60.333,297.154 60.333 C 297.055 60.333,296.746 60.105,296.467 59.826 C 296.188 59.547,295.928 59.350,295.889 59.389 C 295.850 59.428,295.610 59.262,295.356 59.021 C 295.102 58.780,294.605 58.358,294.251 58.083 C 293.897 57.808,293.471 57.452,293.304 57.292 C 293.137 57.131,292.925 57.000,292.832 57.000 C 292.740 57.000,292.501 56.813,292.302 56.583 C 292.103 56.354,291.868 56.167,291.781 56.167 C 291.693 56.167,291.448 55.979,291.235 55.750 C 291.023 55.521,290.789 55.332,290.716 55.330 C 290.643 55.329,290.407 55.141,290.191 54.914 C 289.975 54.686,289.728 54.500,289.641 54.500 C 289.555 54.500,289.310 54.313,289.098 54.083 C 288.886 53.854,288.645 53.665,288.564 53.664 C 288.483 53.662,288.240 53.475,288.024 53.247 C 287.808 53.020,287.561 52.833,287.475 52.833 C 287.388 52.833,287.144 52.646,286.931 52.417 C 286.719 52.188,286.463 52.000,286.362 52.000 C 286.261 52.000,286.101 51.855,286.006 51.678 C 285.911 51.501,285.668 51.303,285.466 51.239 C 285.263 51.175,284.909 50.907,284.678 50.644 C 284.448 50.382,284.188 50.167,284.102 50.167 C 284.015 50.167,283.826 50.053,283.681 49.913 C 282.846 49.111,282.178 48.643,281.625 48.473 C 281.281 48.367,281.000 48.223,281.000 48.154 C 281.000 48.084,280.756 47.974,280.458 47.909 C 280.160 47.844,279.863 47.707,279.798 47.604 C 279.712 47.468,275.443 47.404,264.238 47.369 L 248.797 47.322 248.901 46.953 C 248.958 46.749,249.051 46.265,249.108 45.875 C 249.165 45.485,249.274 45.167,249.350 45.167 C 249.426 45.167,249.538 44.792,249.599 44.333 C 249.660 43.875,249.768 43.500,249.840 43.500 C 249.911 43.500,250.058 42.975,250.167 42.333 C 250.275 41.692,250.422 41.167,250.494 41.167 C 250.565 41.167,250.673 40.792,250.734 40.333 C 250.795 39.875,250.908 39.500,250.984 39.500 C 251.061 39.500,251.173 39.125,251.234 38.667 C 251.295 38.208,251.404 37.833,251.476 37.833 C 251.549 37.833,251.709 37.233,251.833 36.500 C 251.957 35.767,252.118 35.167,252.190 35.167 C 252.263 35.167,252.372 34.792,252.432 34.333 C 252.493 33.875,252.604 33.500,252.678 33.500 C 252.752 33.500,252.865 33.144,252.930 32.708 C 252.994 32.273,253.107 31.877,253.182 31.828 C 253.257 31.780,253.413 31.236,253.530 30.620 C 253.647 30.004,253.798 29.500,253.866 29.500 C 253.933 29.500,254.038 29.125,254.099 28.667 C 254.160 28.208,254.272 27.833,254.349 27.833 C 254.426 27.833,254.538 27.458,254.599 27.000 C 254.660 26.542,254.768 26.167,254.840 26.167 C 254.911 26.167,255.058 25.642,255.167 25.000 C 255.275 24.358,255.422 23.833,255.494 23.833 C 255.565 23.833,255.673 23.458,255.734 23.000 C 255.795 22.542,255.908 22.167,255.984 22.167 C 256.061 22.167,256.173 21.795,256.233 21.340 C 256.294 20.886,256.405 20.475,256.482 20.428 C 256.558 20.381,256.721 19.778,256.843 19.088 C 256.966 18.398,257.124 17.833,257.194 17.833 C 257.264 17.833,257.372 17.458,257.432 17.000 C 257.493 16.542,257.601 16.167,257.673 16.167 C 257.745 16.167,257.897 15.642,258.012 15.000 C 258.126 14.358,258.276 13.833,258.344 13.833 C 258.413 13.833,258.520 13.458,258.583 13.000 C 258.646 12.542,258.759 12.167,258.833 12.167 C 258.908 12.167,259.020 11.792,259.083 11.333 C 259.146 10.875,259.255 10.500,259.325 10.500 C 259.395 10.500,259.549 9.938,259.667 9.250 C 259.784 8.563,259.936 8.000,260.005 8.000 C 260.073 8.000,260.179 7.662,260.241 7.250 C 260.303 6.837,260.414 6.500,260.488 6.500 C 260.561 6.500,260.669 6.151,260.728 5.725 C 260.786 5.299,260.897 4.868,260.975 4.767 C 261.053 4.666,261.214 4.096,261.333 3.500 C 261.452 2.904,261.619 2.328,261.702 2.220 C 261.786 2.112,261.898 1.605,261.951 1.095 L 262.047 0.167 243.482 0.180 C 233.271 0.187,224.823 0.231,224.708 0.277 M17.899 47.569 C 17.849 47.700,17.880 47.944,17.968 48.112 C 18.056 48.280,18.181 48.735,18.245 49.124 C 18.310 49.513,18.426 49.871,18.503 49.918 C 18.580 49.966,18.695 50.417,18.758 50.919 C 18.820 51.422,18.928 51.833,18.998 51.833 C 19.067 51.833,19.173 52.208,19.234 52.667 C 19.295 53.125,19.410 53.500,19.490 53.500 C 19.570 53.500,19.596 53.650,19.548 53.834 C 19.500 54.018,19.540 54.264,19.636 54.380 C 19.733 54.496,19.864 54.984,19.927 55.462 C 19.991 55.941,20.106 56.333,20.182 56.333 C 20.259 56.333,20.372 56.708,20.432 57.167 C 20.493 57.625,20.594 58.000,20.656 58.000 C 20.718 58.000,20.863 58.561,20.978 59.247 C 21.093 59.932,21.252 60.533,21.332 60.582 C 21.412 60.632,21.528 61.083,21.591 61.586 C 21.654 62.089,21.762 62.500,21.831 62.500 C 21.900 62.500,22.007 62.875,22.068 63.333 C 22.128 63.792,22.236 64.167,22.307 64.167 C 22.377 64.167,22.532 64.748,22.651 65.458 C 22.769 66.169,22.934 66.833,23.016 66.933 C 23.099 67.034,23.215 67.484,23.275 67.933 C 23.335 68.383,23.467 68.804,23.567 68.869 C 23.827 69.038,23.822 77.467,23.562 77.631 C 23.458 77.696,23.320 78.144,23.255 78.625 C 23.189 79.106,23.078 79.535,23.007 79.579 C 22.937 79.622,22.779 80.222,22.657 80.912 C 22.534 81.602,22.376 82.167,22.306 82.167 C 22.236 82.167,22.128 82.542,22.068 83.000 C 22.007 83.458,21.894 83.833,21.818 83.833 C 21.741 83.833,21.628 84.208,21.568 84.667 C 21.507 85.125,21.398 85.500,21.327 85.500 C 21.255 85.500,21.108 86.025,21.000 86.667 C 20.892 87.308,20.745 87.833,20.673 87.833 C 20.602 87.833,20.493 88.208,20.432 88.667 C 20.372 89.125,20.260 89.500,20.184 89.500 C 20.108 89.500,19.998 89.849,19.939 90.275 C 19.881 90.701,19.749 91.151,19.647 91.274 C 19.544 91.397,19.500 91.649,19.548 91.832 C 19.596 92.016,19.570 92.167,19.490 92.167 C 19.410 92.167,19.295 92.542,19.234 93.000 C 19.173 93.458,19.061 93.833,18.984 93.833 C 18.908 93.833,18.795 94.208,18.734 94.667 C 18.673 95.125,18.561 95.500,18.484 95.500 C 18.408 95.500,18.295 95.875,18.234 96.333 C 18.173 96.792,18.065 97.167,17.994 97.167 C 17.922 97.167,17.775 97.692,17.667 98.333 C 17.558 98.975,17.411 99.500,17.340 99.500 C 17.268 99.500,17.160 99.875,17.099 100.333 C 17.038 100.792,16.929 101.167,16.857 101.167 C 16.785 101.167,16.624 101.767,16.500 102.500 C 16.376 103.233,16.217 103.833,16.147 103.833 C 16.078 103.833,15.970 104.172,15.908 104.585 C 15.846 104.999,15.735 105.374,15.662 105.420 C 15.589 105.465,15.478 105.801,15.417 106.167 C 15.355 106.532,15.246 106.867,15.175 106.911 C 15.104 106.955,14.946 107.556,14.823 108.246 C 14.701 108.936,14.543 109.500,14.473 109.500 C 14.402 109.500,14.295 109.875,14.234 110.333 C 14.173 110.792,14.061 111.167,13.984 111.167 C 13.908 111.167,13.795 111.542,13.734 112.000 C 13.673 112.458,13.565 112.833,13.494 112.833 C 13.422 112.833,13.275 113.358,13.167 114.000 C 13.058 114.642,12.911 115.167,12.840 115.167 C 12.768 115.167,12.660 115.542,12.599 116.000 C 12.538 116.458,12.423 116.833,12.343 116.833 C 12.263 116.833,12.146 117.208,12.083 117.666 C 12.020 118.125,11.908 118.537,11.833 118.584 C 11.758 118.630,11.603 119.193,11.488 119.834 C 11.374 120.475,11.224 121.000,11.156 121.000 C 11.087 121.000,10.980 121.375,10.917 121.833 C 10.854 122.292,10.745 122.667,10.675 122.667 C 10.605 122.667,10.451 123.229,10.333 123.917 C 10.216 124.604,10.062 125.167,9.992 125.167 C 9.922 125.167,9.813 125.542,9.750 126.000 C 9.687 126.458,9.574 126.833,9.500 126.833 C 9.426 126.833,9.313 127.208,9.250 127.667 C 9.187 128.125,9.078 128.500,9.008 128.500 C 8.938 128.500,8.784 129.063,8.667 129.750 C 8.549 130.438,8.391 131.000,8.315 131.000 C 8.240 131.000,8.128 131.375,8.068 131.833 C 8.007 132.292,7.894 132.667,7.818 132.667 C 7.741 132.667,7.628 133.042,7.568 133.500 C 7.507 133.958,7.398 134.333,7.327 134.333 C 7.255 134.333,7.108 134.858,7.000 135.500 C 6.892 136.142,6.745 136.667,6.673 136.667 C 6.602 136.667,6.494 137.039,6.433 137.493 C 6.373 137.948,6.251 138.365,6.162 138.420 C 6.073 138.475,6.000 138.655,6.000 138.821 C 6.000 138.987,5.847 139.602,5.659 140.187 C 5.471 140.771,5.274 141.569,5.220 141.958 C 5.166 142.348,5.059 142.667,4.983 142.667 C 4.907 142.667,4.795 143.042,4.734 143.500 C 4.673 143.958,4.563 144.333,4.489 144.333 C 4.414 144.333,4.302 144.690,4.239 145.125 C 4.175 145.560,4.030 146.104,3.917 146.333 C 3.803 146.563,3.658 147.106,3.595 147.542 C 3.531 147.977,3.419 148.333,3.345 148.333 C 3.270 148.333,3.160 148.708,3.099 149.167 C 3.038 149.625,2.929 150.000,2.857 150.000 C 2.785 150.000,2.624 150.600,2.500 151.333 C 2.376 152.067,2.215 152.667,2.143 152.667 C 2.071 152.667,1.962 153.042,1.901 153.500 C 1.840 153.958,1.728 154.333,1.651 154.333 C 1.574 154.333,1.462 154.708,1.401 155.167 C 1.340 155.625,1.233 156.000,1.162 156.000 C 1.092 156.000,0.946 156.505,0.839 157.122 C 0.731 157.740,0.583 158.283,0.509 158.331 C 0.435 158.378,0.321 158.736,0.256 159.126 L 0.137 159.835 19.527 159.792 L 38.917 159.750 38.970 159.375 C 38.999 159.169,39.080 159.000,39.149 159.000 C 39.218 159.000,39.376 158.400,39.500 157.667 C 39.624 156.933,39.785 156.333,39.857 156.333 C 39.929 156.333,40.038 155.958,40.099 155.500 C 40.160 155.042,40.272 154.667,40.349 154.667 C 40.426 154.667,40.538 154.292,40.599 153.833 C 40.660 153.375,40.768 153.000,40.840 153.000 C 40.911 153.000,41.058 152.475,41.167 151.833 C 41.275 151.192,41.425 150.667,41.499 150.667 C 41.574 150.667,41.687 150.292,41.750 149.833 C 41.813 149.375,41.926 149.000,42.000 149.000 C 42.074 149.000,42.187 148.625,42.250 148.167 C 42.313 147.708,42.422 147.333,42.492 147.333 C 42.562 147.333,42.716 146.771,42.833 146.083 C 42.951 145.396,43.105 144.833,43.175 144.833 C 43.245 144.833,43.354 144.458,43.417 144.000 C 43.480 143.542,43.589 143.167,43.659 143.167 C 43.729 143.167,43.882 142.604,44.000 141.917 C 44.118 141.229,44.270 140.667,44.338 140.667 C 44.406 140.667,44.513 140.331,44.574 139.921 C 44.636 139.510,44.748 139.136,44.824 139.089 C 44.900 139.042,45.012 138.667,45.074 138.256 C 45.135 137.844,45.246 137.471,45.320 137.425 C 45.394 137.379,45.554 136.778,45.677 136.088 C 45.799 135.398,45.957 134.833,46.027 134.833 C 46.098 134.833,46.205 134.458,46.266 134.000 C 46.327 133.542,46.439 133.167,46.516 133.167 C 46.592 133.167,46.705 132.792,46.766 132.333 C 46.827 131.875,46.935 131.500,47.006 131.500 C 47.078 131.500,47.225 130.975,47.333 130.333 C 47.442 129.692,47.589 129.167,47.660 129.167 C 47.732 129.167,47.840 128.792,47.901 128.333 C 47.962 127.875,48.075 127.500,48.153 127.500 C 48.232 127.500,48.349 127.144,48.413 126.708 C 48.478 126.273,48.591 125.842,48.664 125.750 C 48.737 125.658,48.888 125.133,49.000 124.583 C 49.112 124.033,49.261 123.508,49.333 123.417 C 49.404 123.325,49.515 122.932,49.579 122.543 C 49.643 122.153,49.754 121.799,49.825 121.755 C 49.896 121.711,50.054 121.111,50.177 120.421 C 50.299 119.731,50.457 119.167,50.527 119.167 C 50.598 119.167,50.705 118.792,50.766 118.333 C 50.827 117.875,50.939 117.500,51.016 117.500 C 51.092 117.500,51.205 117.125,51.266 116.667 C 51.327 116.208,51.435 115.833,51.506 115.833 C 51.578 115.833,51.725 115.308,51.833 114.667 C 51.942 114.025,52.089 113.500,52.160 113.500 C 52.232 113.500,52.340 113.125,52.401 112.667 C 52.462 112.208,52.574 111.833,52.651 111.833 C 52.728 111.833,52.840 111.461,52.900 111.007 C 52.960 110.552,53.072 110.142,53.148 110.095 C 53.225 110.047,53.388 109.444,53.510 108.754 C 53.633 108.064,53.790 107.500,53.861 107.500 C 53.931 107.500,54.038 107.125,54.099 106.667 C 54.160 106.208,54.272 105.833,54.349 105.833 C 54.426 105.833,54.538 105.458,54.599 105.000 C 54.660 104.542,54.768 104.167,54.840 104.167 C 54.911 104.167,55.058 103.642,55.167 103.000 C 55.275 102.358,55.422 101.833,55.494 101.833 C 55.565 101.833,55.673 101.458,55.734 101.000 C 55.795 100.542,55.907 100.167,55.983 100.167 C 56.059 100.167,56.169 99.818,56.228 99.392 C 56.286 98.966,56.397 98.534,56.475 98.433 C 56.553 98.333,56.714 97.763,56.833 97.167 C 56.952 96.571,57.110 96.005,57.184 95.908 C 57.258 95.812,57.369 95.417,57.431 95.030 C 57.493 94.643,57.602 94.290,57.674 94.246 C 57.745 94.202,57.897 93.641,58.012 92.999 C 58.126 92.358,58.276 91.833,58.344 91.833 C 58.413 91.833,58.520 91.458,58.583 91.000 C 58.646 90.542,58.759 90.167,58.833 90.167 C 58.908 90.167,59.020 89.792,59.083 89.333 C 59.146 88.875,59.255 88.500,59.325 88.500 C 59.395 88.500,59.549 87.938,59.667 87.250 C 59.784 86.563,59.938 86.000,60.008 86.000 C 60.078 86.000,60.187 85.625,60.250 85.167 C 60.313 84.708,60.424 84.333,60.497 84.333 C 60.569 84.333,60.682 83.977,60.747 83.542 C 60.811 83.106,60.924 82.675,60.998 82.583 C 61.071 82.492,61.222 81.967,61.333 81.417 C 61.445 80.867,61.593 80.342,61.663 80.250 C 61.733 80.158,61.842 79.793,61.906 79.438 C 61.970 79.083,62.088 78.670,62.167 78.521 C 62.246 78.372,62.397 77.912,62.501 77.500 C 62.606 77.087,62.775 76.429,62.875 76.037 L 63.058 75.323 72.738 75.370 L 82.417 75.417 82.875 75.822 C 83.127 76.045,83.333 76.326,83.333 76.447 C 83.333 76.568,83.408 76.667,83.500 76.667 C 83.703 76.667,83.724 77.778,83.523 77.902 C 83.444 77.951,83.279 78.556,83.157 79.246 C 83.034 79.936,82.876 80.500,82.806 80.500 C 82.736 80.500,82.628 80.875,82.568 81.333 C 82.507 81.792,82.396 82.167,82.322 82.167 C 82.248 82.167,82.136 82.504,82.075 82.917 C 82.013 83.329,81.906 83.667,81.838 83.667 C 81.770 83.667,81.618 84.229,81.500 84.917 C 81.382 85.604,81.229 86.167,81.159 86.167 C 81.089 86.167,80.980 86.542,80.917 87.000 C 80.854 87.458,80.741 87.833,80.667 87.833 C 80.592 87.833,80.480 88.208,80.417 88.667 C 80.354 89.125,80.246 89.500,80.178 89.500 C 80.109 89.500,79.960 90.025,79.845 90.666 C 79.730 91.307,79.577 91.869,79.504 91.914 C 79.431 91.959,79.321 92.333,79.260 92.744 C 79.198 93.156,79.077 93.536,78.990 93.589 C 78.904 93.643,78.833 93.822,78.833 93.988 C 78.833 94.154,78.680 94.768,78.492 95.353 C 78.305 95.938,78.107 96.735,78.053 97.125 C 77.999 97.515,77.892 97.833,77.816 97.833 C 77.740 97.833,77.628 98.208,77.568 98.667 C 77.507 99.125,77.398 99.500,77.327 99.500 C 77.255 99.500,77.108 100.025,77.000 100.667 C 76.892 101.308,76.745 101.833,76.673 101.833 C 76.602 101.833,76.493 102.208,76.432 102.667 C 76.372 103.125,76.259 103.500,76.182 103.500 C 76.106 103.500,75.993 103.875,75.932 104.333 C 75.872 104.792,75.763 105.167,75.690 105.167 C 75.618 105.167,75.457 105.767,75.333 106.500 C 75.209 107.233,75.054 107.833,74.989 107.833 C 74.924 107.833,74.818 108.115,74.754 108.458 C 74.689 108.802,74.578 109.158,74.507 109.250 C 74.435 109.342,74.323 109.717,74.257 110.083 C 74.191 110.450,74.060 110.843,73.966 110.956 C 73.873 111.070,73.839 111.273,73.891 111.409 C 73.943 111.545,73.916 111.699,73.831 111.752 C 73.746 111.804,73.627 112.219,73.567 112.674 C 73.506 113.128,73.394 113.500,73.318 113.500 C 73.241 113.500,73.128 113.875,73.068 114.333 C 73.007 114.792,72.894 115.167,72.818 115.167 C 72.741 115.167,72.628 115.542,72.568 116.000 C 72.507 116.458,72.398 116.833,72.327 116.833 C 72.255 116.833,72.108 117.358,72.000 118.000 C 71.892 118.642,71.745 119.167,71.673 119.167 C 71.602 119.167,71.493 119.542,71.432 120.000 C 71.372 120.458,71.249 120.833,71.161 120.833 C 71.072 120.833,71.000 121.011,71.000 121.228 C 71.000 121.446,70.847 122.102,70.659 122.687 C 70.471 123.271,70.274 124.069,70.220 124.458 C 70.166 124.848,70.059 125.167,69.983 125.167 C 69.907 125.167,69.795 125.542,69.734 126.000 C 69.673 126.458,69.565 126.833,69.494 126.833 C 69.422 126.833,69.270 127.358,69.155 128.000 C 69.040 128.642,68.891 129.167,68.822 129.167 C 68.754 129.167,68.646 129.542,68.583 130.000 C 68.520 130.458,68.408 130.833,68.333 130.833 C 68.259 130.833,68.146 131.208,68.083 131.667 C 68.020 132.125,67.908 132.500,67.833 132.500 C 67.758 132.500,67.608 133.025,67.500 133.667 C 67.392 134.308,67.245 134.833,67.173 134.833 C 67.102 134.833,66.993 135.208,66.932 135.667 C 66.872 136.125,66.760 136.500,66.684 136.500 C 66.608 136.500,66.498 136.849,66.439 137.275 C 66.381 137.701,66.249 138.151,66.147 138.274 C 66.044 138.397,66.000 138.649,66.048 138.832 C 66.096 139.016,66.072 139.167,65.995 139.167 C 65.917 139.167,65.803 139.505,65.741 139.919 C 65.679 140.332,65.566 140.709,65.490 140.756 C 65.415 140.803,65.302 141.178,65.240 141.589 C 65.179 142.001,65.066 142.376,64.990 142.423 C 64.915 142.469,64.802 142.844,64.740 143.256 C 64.679 143.667,64.569 144.041,64.496 144.086 C 64.423 144.131,64.270 144.693,64.155 145.334 C 64.040 145.975,63.891 146.500,63.822 146.500 C 63.754 146.500,63.646 146.875,63.583 147.333 C 63.520 147.792,63.411 148.167,63.341 148.167 C 63.271 148.167,63.118 148.729,63.000 149.417 C 62.882 150.104,62.729 150.667,62.659 150.667 C 62.589 150.667,62.480 151.042,62.417 151.500 C 62.354 151.958,62.241 152.333,62.167 152.333 C 62.092 152.333,61.980 152.708,61.917 153.167 C 61.854 153.625,61.741 154.000,61.666 154.000 C 61.591 154.000,61.442 154.525,61.333 155.167 C 61.225 155.808,61.078 156.333,61.006 156.333 C 60.935 156.333,60.827 156.703,60.767 157.154 C 60.708 157.606,60.590 157.999,60.506 158.029 C 60.422 158.059,60.302 158.477,60.239 158.958 L 60.124 159.833 78.885 159.833 L 97.646 159.833 97.759 159.083 C 97.821 158.671,97.926 158.333,97.992 158.333 C 98.059 158.333,98.207 157.809,98.322 157.167 C 98.436 156.526,98.590 155.964,98.662 155.919 C 98.735 155.874,98.845 155.501,98.907 155.089 C 98.969 154.678,99.081 154.303,99.157 154.256 C 99.233 154.209,99.345 153.834,99.407 153.423 C 99.469 153.011,99.580 152.637,99.653 152.592 C 99.727 152.546,99.888 151.944,100.010 151.254 C 100.133 150.564,100.290 150.000,100.361 150.000 C 100.431 150.000,100.538 149.625,100.599 149.167 C 100.660 148.708,100.772 148.333,100.849 148.333 C 100.926 148.333,101.038 147.958,101.099 147.500 C 101.160 147.042,101.268 146.667,101.340 146.667 C 101.411 146.667,101.558 146.142,101.667 145.500 C 101.775 144.858,101.922 144.333,101.994 144.333 C 102.065 144.333,102.173 143.961,102.233 143.507 C 102.294 143.052,102.407 142.641,102.486 142.592 C 102.564 142.544,102.679 142.167,102.740 141.756 C 102.802 141.344,102.913 140.971,102.987 140.925 C 103.060 140.879,103.221 140.278,103.343 139.588 C 103.466 138.898,103.624 138.333,103.694 138.333 C 103.764 138.333,103.872 137.958,103.932 137.500 C 103.993 137.042,104.102 136.667,104.173 136.667 C 104.245 136.667,104.392 136.142,104.500 135.500 C 104.608 134.858,104.755 134.333,104.827 134.333 C 104.898 134.333,105.007 133.958,105.068 133.500 C 105.128 133.042,105.241 132.667,105.318 132.667 C 105.394 132.667,105.506 132.295,105.567 131.840 C 105.627 131.386,105.739 130.975,105.815 130.928 C 105.891 130.881,106.054 130.278,106.177 129.588 C 106.299 128.898,106.455 128.333,106.523 128.333 C 106.591 128.333,106.697 127.995,106.759 127.581 C 106.821 127.168,106.934 126.791,107.010 126.744 C 107.085 126.697,107.198 126.322,107.260 125.911 C 107.321 125.499,107.431 125.126,107.504 125.081 C 107.577 125.036,107.730 124.474,107.845 123.833 C 107.960 123.191,108.109 122.667,108.178 122.667 C 108.246 122.667,108.354 122.292,108.417 121.833 C 108.480 121.375,108.592 121.000,108.667 121.000 C 108.741 121.000,108.854 120.625,108.917 120.167 C 108.980 119.708,109.089 119.333,109.159 119.333 C 109.229 119.333,109.382 118.771,109.500 118.083 C 109.618 117.396,109.771 116.833,109.841 116.833 C 109.911 116.833,110.020 116.458,110.083 116.000 C 110.146 115.542,110.254 115.167,110.322 115.167 C 110.391 115.167,110.540 114.642,110.655 114.001 C 110.770 113.359,110.923 112.798,110.996 112.753 C 111.069 112.708,111.179 112.334,111.240 111.923 C 111.302 111.511,111.415 111.136,111.490 111.089 C 111.566 111.042,111.679 110.667,111.740 110.256 C 111.802 109.844,111.913 109.471,111.987 109.425 C 112.060 109.379,112.221 108.778,112.343 108.088 C 112.466 107.398,112.624 106.833,112.694 106.833 C 112.764 106.833,112.872 106.458,112.932 106.000 C 112.993 105.542,113.106 105.167,113.182 105.167 C 113.259 105.167,113.372 104.792,113.432 104.333 C 113.493 103.875,113.602 103.500,113.673 103.500 C 113.745 103.500,113.892 102.975,114.000 102.333 C 114.108 101.692,114.255 101.167,114.327 101.167 C 114.398 101.167,114.507 100.792,114.568 100.333 C 114.628 99.875,114.741 99.500,114.818 99.500 C 114.894 99.500,115.006 99.128,115.067 98.674 C 115.127 98.219,115.239 97.808,115.315 97.761 C 115.391 97.714,115.554 97.111,115.677 96.421 C 115.799 95.731,115.957 95.167,116.027 95.167 C 116.098 95.167,116.205 94.792,116.266 94.333 C 116.327 93.875,116.435 93.500,116.506 93.500 C 116.578 93.500,116.725 92.975,116.833 92.333 C 116.942 91.692,117.089 91.167,117.160 91.167 C 117.232 91.167,117.340 90.792,117.401 90.333 C 117.462 89.875,117.574 89.500,117.651 89.500 C 117.728 89.500,117.840 89.125,117.901 88.667 C 117.962 88.208,118.069 87.833,118.139 87.833 C 118.210 87.833,118.367 87.271,118.489 86.583 C 118.611 85.896,118.768 85.333,118.837 85.333 C 118.906 85.333,119.013 84.996,119.075 84.583 C 119.136 84.171,119.248 83.833,119.322 83.833 C 119.396 83.833,119.506 83.461,119.567 83.007 C 119.627 82.552,119.739 82.142,119.815 82.095 C 119.891 82.047,120.054 81.444,120.177 80.754 C 120.299 80.064,120.457 79.500,120.527 79.500 C 120.598 79.500,120.705 79.125,120.766 78.667 C 120.827 78.208,120.939 77.833,121.016 77.833 C 121.092 77.833,121.205 77.458,121.266 77.000 C 121.327 76.542,121.436 76.167,121.510 76.167 C 121.583 76.167,121.667 75.998,121.697 75.792 L 121.750 75.417 130.930 75.374 L 140.109 75.331 140.715 75.790 C 141.478 76.369,141.852 78.833,141.178 78.833 C 141.104 78.833,140.994 79.205,140.933 79.660 C 140.873 80.114,140.744 80.535,140.647 80.595 C 140.550 80.655,140.508 80.846,140.553 81.019 C 140.598 81.192,140.570 81.374,140.489 81.423 C 140.409 81.473,140.294 81.886,140.233 82.340 C 140.173 82.795,140.061 83.167,139.984 83.167 C 139.908 83.167,139.795 83.542,139.734 84.000 C 139.673 84.458,139.561 84.833,139.484 84.833 C 139.408 84.833,139.295 85.208,139.234 85.667 C 139.173 86.125,139.065 86.500,138.994 86.500 C 138.922 86.500,138.775 87.025,138.667 87.667 C 138.558 88.308,138.411 88.833,138.340 88.833 C 138.268 88.833,138.160 89.208,138.099 89.667 C 138.038 90.125,137.916 90.500,137.828 90.500 C 137.739 90.500,137.663 90.706,137.659 90.958 C 137.655 91.210,137.536 91.717,137.395 92.083 C 137.254 92.450,137.062 93.144,136.969 93.625 C 136.876 94.106,136.742 94.500,136.672 94.500 C 136.601 94.500,136.493 94.875,136.432 95.333 C 136.372 95.792,136.263 96.167,136.190 96.167 C 136.118 96.167,135.957 96.767,135.833 97.500 C 135.709 98.233,135.549 98.833,135.476 98.833 C 135.404 98.833,135.295 99.208,135.234 99.667 C 135.173 100.125,135.061 100.500,134.984 100.500 C 134.908 100.500,134.795 100.875,134.734 101.333 C 134.673 101.792,134.565 102.167,134.494 102.167 C 134.422 102.167,134.275 102.692,134.167 103.333 C 134.058 103.975,133.909 104.500,133.834 104.500 C 133.759 104.500,133.646 104.875,133.583 105.333 C 133.520 105.792,133.408 106.167,133.333 106.167 C 133.259 106.167,133.146 106.542,133.083 107.000 C 133.020 107.458,132.911 107.833,132.841 107.833 C 132.771 107.833,132.618 108.396,132.500 109.083 C 132.382 109.771,132.229 110.333,132.159 110.333 C 132.089 110.333,131.980 110.708,131.917 111.167 C 131.854 111.625,131.743 112.000,131.670 112.000 C 131.597 112.000,131.485 112.356,131.420 112.792 C 131.355 113.227,131.242 113.658,131.169 113.750 C 131.096 113.842,130.945 114.367,130.833 114.917 C 130.722 115.467,130.567 115.995,130.489 116.092 C 130.412 116.188,130.297 116.583,130.235 116.970 C 130.174 117.357,130.065 117.710,129.993 117.754 C 129.922 117.798,129.770 118.359,129.655 119.001 C 129.540 119.642,129.391 120.167,129.322 120.167 C 129.254 120.167,129.146 120.542,129.083 121.000 C 129.020 121.458,128.908 121.833,128.833 121.833 C 128.759 121.833,128.646 122.208,128.583 122.667 C 128.520 123.125,128.411 123.500,128.341 123.500 C 128.271 123.500,128.118 124.063,128.000 124.750 C 127.882 125.438,127.729 126.000,127.659 126.000 C 127.589 126.000,127.480 126.375,127.417 126.833 C 127.354 127.292,127.241 127.667,127.167 127.667 C 127.092 127.667,126.980 128.042,126.917 128.500 C 126.854 128.958,126.725 129.333,126.632 129.333 C 126.538 129.333,126.497 129.521,126.541 129.750 C 126.585 129.979,126.564 130.167,126.496 130.167 C 126.427 130.167,126.321 130.504,126.259 130.917 C 126.197 131.329,126.086 131.667,126.011 131.667 C 125.937 131.667,125.827 132.039,125.767 132.493 C 125.706 132.948,125.593 133.359,125.514 133.408 C 125.436 133.456,125.321 133.833,125.260 134.244 C 125.198 134.656,125.087 135.029,125.013 135.075 C 124.940 135.121,124.779 135.722,124.657 136.412 C 124.534 137.102,124.378 137.667,124.310 137.667 C 124.243 137.667,124.136 138.004,124.075 138.417 C 124.013 138.829,123.906 139.167,123.838 139.167 C 123.770 139.167,123.618 139.729,123.500 140.417 C 123.382 141.104,123.229 141.667,123.159 141.667 C 123.089 141.667,122.980 142.042,122.917 142.500 C 122.854 142.958,122.737 143.333,122.657 143.333 C 122.577 143.333,122.462 143.708,122.401 144.167 C 122.340 144.625,122.232 145.000,122.160 145.000 C 122.089 145.000,121.942 145.525,121.833 146.167 C 121.725 146.808,121.578 147.333,121.506 147.333 C 121.435 147.333,121.327 147.705,121.267 148.160 C 121.206 148.614,121.094 149.025,121.017 149.073 C 120.940 149.120,120.826 149.476,120.765 149.863 C 120.703 150.250,120.572 150.663,120.474 150.781 C 120.376 150.899,120.339 151.107,120.391 151.243 C 120.443 151.378,120.416 151.532,120.331 151.585 C 120.246 151.637,120.127 152.052,120.067 152.507 C 120.006 152.961,119.894 153.333,119.818 153.333 C 119.741 153.333,119.628 153.708,119.568 154.167 C 119.507 154.625,119.394 155.000,119.318 155.000 C 119.241 155.000,119.128 155.375,119.068 155.833 C 119.007 156.292,118.898 156.667,118.827 156.667 C 118.755 156.667,118.608 157.192,118.500 157.833 C 118.392 158.475,118.235 159.000,118.152 159.000 C 118.068 159.000,118.000 159.188,118.000 159.417 L 118.000 159.833 137.292 159.831 C 147.902 159.829,156.668 159.773,156.771 159.706 C 156.874 159.638,157.054 159.040,157.172 158.375 C 157.290 157.710,157.443 157.167,157.511 157.167 C 157.579 157.167,157.687 156.792,157.750 156.333 C 157.813 155.875,157.926 155.500,158.000 155.500 C 158.074 155.500,158.187 155.125,158.250 154.667 C 158.313 154.208,158.422 153.833,158.492 153.833 C 158.562 153.833,158.716 153.271,158.833 152.583 C 158.951 151.896,159.105 151.333,159.175 151.333 C 159.245 151.333,159.354 150.958,159.417 150.500 C 159.480 150.042,159.591 149.667,159.663 149.667 C 159.736 149.667,159.846 149.331,159.907 148.921 C 159.969 148.510,160.080 148.137,160.153 148.092 C 160.227 148.046,160.388 147.444,160.510 146.754 C 160.633 146.064,160.790 145.500,160.861 145.500 C 160.931 145.500,161.038 145.125,161.099 144.667 C 161.160 144.208,161.272 143.833,161.349 143.833 C 161.426 143.833,161.538 143.458,161.599 143.000 C 161.660 142.542,161.768 142.167,161.840 142.167 C 161.911 142.167,162.058 141.642,162.167 141.000 C 162.275 140.358,162.422 139.833,162.494 139.833 C 162.565 139.833,162.673 139.458,162.734 139.000 C 162.795 138.542,162.904 138.167,162.976 138.167 C 163.049 138.167,163.209 137.567,163.333 136.833 C 163.457 136.100,163.618 135.500,163.690 135.500 C 163.763 135.500,163.872 135.125,163.932 134.667 C 163.993 134.208,164.106 133.833,164.182 133.833 C 164.259 133.833,164.372 133.458,164.432 133.000 C 164.493 132.542,164.602 132.167,164.673 132.167 C 164.745 132.167,164.892 131.642,165.000 131.000 C 165.108 130.358,165.255 129.833,165.327 129.833 C 165.398 129.833,165.507 129.458,165.568 129.000 C 165.628 128.542,165.741 128.167,165.818 128.167 C 165.894 128.167,166.007 127.792,166.068 127.333 C 166.128 126.875,166.237 126.500,166.310 126.500 C 166.382 126.500,166.543 125.900,166.667 125.167 C 166.791 124.433,166.951 123.833,167.024 123.833 C 167.096 123.833,167.205 123.458,167.266 123.000 C 167.327 122.542,167.437 122.167,167.511 122.167 C 167.586 122.167,167.697 121.828,167.759 121.415 C 167.821 121.001,167.931 120.626,168.004 120.581 C 168.077 120.536,168.230 119.974,168.345 119.333 C 168.460 118.691,168.609 118.167,168.678 118.167 C 168.746 118.167,168.854 117.792,168.917 117.333 C 168.980 116.875,169.097 116.500,169.177 116.500 C 169.256 116.500,169.372 116.125,169.432 115.667 C 169.493 115.208,169.602 114.833,169.673 114.833 C 169.745 114.833,169.892 114.308,170.000 113.667 C 170.108 113.025,170.255 112.500,170.327 112.500 C 170.398 112.500,170.507 112.125,170.568 111.667 C 170.628 111.208,170.736 110.833,170.806 110.833 C 170.876 110.833,171.034 110.269,171.157 109.579 C 171.279 108.889,171.440 108.287,171.513 108.242 C 171.587 108.196,171.698 107.822,171.760 107.411 C 171.821 106.999,171.934 106.624,172.010 106.577 C 172.085 106.531,172.198 106.156,172.260 105.744 C 172.321 105.333,172.431 104.959,172.504 104.914 C 172.577 104.869,172.730 104.307,172.845 103.666 C 172.960 103.025,173.109 102.500,173.178 102.500 C 173.246 102.500,173.354 102.125,173.417 101.667 C 173.480 101.208,173.592 100.833,173.667 100.833 C 173.741 100.833,173.854 100.458,173.917 100.000 C 173.980 99.542,174.092 99.129,174.167 99.083 C 174.242 99.037,174.397 98.474,174.512 97.833 C 174.626 97.191,174.776 96.667,174.844 96.667 C 174.913 96.667,175.020 96.292,175.083 95.833 C 175.146 95.375,175.257 95.000,175.330 95.000 C 175.403 95.000,175.515 94.644,175.580 94.208 C 175.645 93.773,175.768 93.331,175.854 93.227 C 175.940 93.122,176.091 92.579,176.190 92.018 C 176.288 91.458,176.426 91.000,176.496 91.000 C 176.566 91.000,176.673 90.628,176.733 90.174 C 176.794 89.719,176.905 89.308,176.982 89.261 C 177.058 89.214,177.221 88.611,177.343 87.921 C 177.466 87.231,177.624 86.667,177.694 86.667 C 177.764 86.667,177.872 86.292,177.932 85.833 C 177.993 85.375,178.106 85.000,178.182 85.000 C 178.259 85.000,178.372 84.625,178.432 84.167 C 178.493 83.708,178.602 83.333,178.673 83.333 C 178.745 83.333,178.892 82.808,179.000 82.167 C 179.108 81.525,179.255 81.000,179.327 81.000 C 179.398 81.000,179.507 80.625,179.568 80.167 C 179.628 79.708,179.741 79.333,179.818 79.333 C 179.894 79.333,180.006 78.961,180.067 78.507 C 180.127 78.052,180.239 77.642,180.315 77.595 C 180.391 77.547,180.554 76.944,180.677 76.254 C 180.799 75.564,180.957 75.000,181.027 75.000 C 181.098 75.000,181.205 74.625,181.266 74.167 C 181.327 73.708,181.439 73.333,181.516 73.333 C 181.592 73.333,181.705 72.958,181.766 72.500 C 181.827 72.042,181.934 71.667,182.004 71.667 C 182.075 71.667,182.220 71.162,182.328 70.544 C 182.435 69.927,182.612 69.367,182.720 69.300 C 182.985 69.137,182.997 64.374,182.732 64.203 C 182.631 64.137,182.462 63.821,182.357 63.500 C 182.185 62.972,180.751 61.457,179.639 60.627 C 179.425 60.467,179.025 60.144,178.750 59.908 C 178.475 59.673,178.053 59.375,177.812 59.246 C 177.571 59.118,177.329 58.897,177.275 58.756 C 177.221 58.615,177.062 58.500,176.922 58.500 C 176.782 58.500,176.665 58.444,176.663 58.375 C 176.661 58.306,176.324 58.025,175.913 57.750 C 175.503 57.475,175.167 57.194,175.167 57.125 C 175.167 57.056,175.057 57.000,174.923 57.000 C 174.788 57.000,174.601 56.855,174.506 56.678 C 174.411 56.501,174.180 56.307,173.992 56.247 C 173.804 56.188,173.435 55.939,173.173 55.694 C 172.351 54.929,171.810 54.500,171.665 54.500 C 171.589 54.500,171.307 54.294,171.040 54.042 C 170.772 53.790,170.352 53.433,170.106 53.250 C 169.860 53.067,169.566 52.842,169.454 52.750 C 168.196 51.725,167.671 51.333,167.551 51.333 C 167.472 51.333,167.222 51.127,166.995 50.875 C 166.769 50.623,166.377 50.310,166.125 50.180 C 165.873 50.050,165.667 49.881,165.667 49.805 C 165.667 49.729,165.557 49.667,165.423 49.667 C 165.288 49.667,165.098 49.517,165.000 49.333 C 164.902 49.150,164.712 49.000,164.577 49.000 C 164.443 49.000,164.333 48.931,164.333 48.846 C 164.333 48.762,164.071 48.606,163.750 48.500 C 163.429 48.394,163.167 48.242,163.167 48.161 C 163.167 48.081,162.885 47.963,162.542 47.900 C 162.198 47.837,161.863 47.702,161.798 47.601 C 161.597 47.289,18.019 47.257,17.899 47.569 M350.292 47.455 C 349.948 47.491,349.667 47.581,349.667 47.655 C 349.667 47.730,349.367 47.839,349.000 47.897 C 348.633 47.956,348.333 48.072,348.333 48.156 C 348.333 48.239,348.071 48.394,347.750 48.500 C 347.429 48.606,347.167 48.762,347.167 48.846 C 347.167 48.931,347.066 49.000,346.942 49.000 C 346.819 49.000,346.545 49.150,346.333 49.333 C 346.122 49.517,345.848 49.667,345.724 49.667 C 345.601 49.667,345.500 49.744,345.500 49.837 C 345.500 49.931,345.313 50.080,345.083 50.167 C 344.854 50.254,344.667 50.396,344.667 50.483 C 344.667 50.569,344.442 50.690,344.167 50.750 C 343.892 50.810,343.667 50.925,343.667 51.004 C 343.667 51.144,343.159 51.464,342.362 51.825 C 342.149 51.922,341.863 52.114,341.726 52.251 C 341.588 52.388,341.369 52.500,341.238 52.500 C 341.107 52.500,341.000 52.577,341.000 52.671 C 341.000 52.765,340.813 52.913,340.583 53.000 C 340.354 53.087,340.167 53.227,340.167 53.311 C 340.167 53.395,339.973 53.513,339.736 53.572 C 339.499 53.632,339.217 53.754,339.111 53.843 C 338.308 54.517,338.092 54.667,337.917 54.667 C 337.807 54.667,337.545 54.817,337.333 55.000 C 337.122 55.183,336.856 55.333,336.742 55.333 C 336.629 55.333,336.492 55.446,336.440 55.583 C 336.387 55.721,336.237 55.833,336.106 55.833 C 335.976 55.833,335.830 55.936,335.781 56.062 C 335.733 56.188,335.494 56.341,335.249 56.402 C 335.005 56.463,334.717 56.587,334.611 56.677 C 333.831 57.332,333.598 57.500,333.473 57.500 C 333.394 57.500,332.956 57.762,332.500 58.083 C 332.044 58.404,331.601 58.667,331.516 58.667 C 331.431 58.667,331.336 58.726,331.306 58.798 C 331.275 58.870,330.875 59.146,330.417 59.412 C 329.958 59.678,329.484 59.994,329.363 60.114 C 329.242 60.235,329.036 60.333,328.905 60.333 C 328.774 60.333,328.667 60.408,328.667 60.500 C 328.667 60.592,328.580 60.667,328.474 60.667 C 328.368 60.667,328.036 60.854,327.735 61.083 C 327.435 61.313,327.141 61.500,327.083 61.500 C 327.024 61.500,326.877 61.594,326.757 61.708 C 326.636 61.823,326.328 62.067,326.072 62.250 C 325.614 62.578,325.021 63.181,324.351 64.000 C 324.164 64.229,323.901 64.530,323.768 64.668 C 323.635 64.806,323.476 65.120,323.415 65.364 C 323.354 65.609,323.198 65.850,323.068 65.899 C 322.939 65.949,322.833 66.147,322.833 66.340 C 322.833 66.533,322.721 66.803,322.583 66.940 C 322.446 67.078,322.333 67.373,322.333 67.595 C 322.333 67.818,322.265 68.000,322.182 68.000 C 322.098 68.000,321.942 68.525,321.833 69.167 C 321.725 69.808,321.578 70.333,321.506 70.333 C 321.435 70.333,321.327 70.708,321.266 71.167 C 321.205 71.625,321.092 72.000,321.016 72.000 C 320.939 72.000,320.827 72.375,320.766 72.833 C 320.705 73.292,320.574 73.667,320.475 73.667 C 320.372 73.667,320.329 73.847,320.375 74.087 C 320.419 74.319,320.395 74.545,320.321 74.591 C 320.247 74.637,320.136 75.010,320.074 75.421 C 320.013 75.831,319.904 76.167,319.833 76.167 C 319.762 76.167,319.654 76.504,319.592 76.917 C 319.530 77.329,319.419 77.667,319.345 77.667 C 319.270 77.667,319.160 78.039,319.100 78.493 C 319.040 78.948,318.928 79.358,318.852 79.405 C 318.775 79.453,318.612 80.056,318.490 80.746 C 318.367 81.436,318.210 82.000,318.139 82.000 C 318.069 82.000,317.962 82.375,317.901 82.833 C 317.840 83.292,317.733 83.667,317.663 83.667 C 317.593 83.667,317.455 84.125,317.356 84.685 C 317.258 85.245,317.107 85.789,317.021 85.893 C 316.935 85.998,316.811 86.440,316.747 86.875 C 316.682 87.310,316.569 87.667,316.497 87.667 C 316.424 87.667,316.313 88.042,316.250 88.500 C 316.187 88.958,316.078 89.333,316.008 89.333 C 315.938 89.333,315.784 89.896,315.667 90.583 C 315.549 91.271,315.395 91.833,315.325 91.833 C 315.255 91.833,315.146 92.208,315.083 92.667 C 315.020 93.125,314.908 93.500,314.833 93.500 C 314.759 93.500,314.646 93.875,314.583 94.333 C 314.520 94.792,314.411 95.167,314.341 95.167 C 314.271 95.167,314.118 95.729,314.000 96.417 C 313.882 97.104,313.730 97.667,313.662 97.667 C 313.594 97.667,313.487 98.002,313.426 98.413 C 313.364 98.823,313.252 99.197,313.176 99.244 C 313.100 99.291,312.988 99.666,312.926 100.077 C 312.865 100.489,312.756 100.861,312.685 100.905 C 312.614 100.949,312.457 101.513,312.335 102.159 C 312.213 102.805,312.057 103.333,311.989 103.333 C 311.921 103.333,311.813 103.708,311.750 104.167 C 311.687 104.625,311.576 105.000,311.503 105.000 C 311.431 105.000,311.320 105.340,311.258 105.756 C 311.195 106.172,311.044 106.754,310.921 107.048 C 310.799 107.342,310.645 107.940,310.580 108.375 C 310.515 108.810,310.403 109.167,310.330 109.167 C 310.257 109.167,310.146 109.542,310.083 110.000 C 310.020 110.458,309.913 110.833,309.844 110.833 C 309.776 110.833,309.626 111.358,309.512 111.999 C 309.397 112.641,309.244 113.202,309.171 113.247 C 309.098 113.292,308.988 113.666,308.926 114.077 C 308.865 114.489,308.752 114.864,308.676 114.911 C 308.600 114.958,308.488 115.333,308.426 115.744 C 308.365 116.156,308.254 116.529,308.180 116.575 C 308.106 116.621,307.946 117.222,307.823 117.912 C 307.701 118.602,307.543 119.167,307.473 119.167 C 307.402 119.167,307.295 119.542,307.234 120.000 C 307.173 120.458,307.061 120.833,306.984 120.833 C 306.908 120.833,306.795 121.208,306.734 121.667 C 306.673 122.125,306.565 122.500,306.494 122.500 C 306.422 122.500,306.275 123.025,306.167 123.667 C 306.058 124.308,305.911 124.833,305.840 124.833 C 305.768 124.833,305.660 125.208,305.599 125.667 C 305.538 126.125,305.426 126.500,305.350 126.500 C 305.274 126.500,305.164 126.849,305.106 127.275 C 305.047 127.701,304.924 128.141,304.832 128.252 C 304.739 128.363,304.583 128.896,304.483 129.435 C 304.384 129.975,304.243 130.492,304.170 130.583 C 304.097 130.675,303.985 131.068,303.921 131.457 C 303.857 131.847,303.746 132.201,303.675 132.245 C 303.604 132.289,303.446 132.889,303.323 133.579 C 303.201 134.269,303.043 134.833,302.973 134.833 C 302.902 134.833,302.795 135.208,302.734 135.667 C 302.673 136.125,302.561 136.500,302.484 136.500 C 302.408 136.500,302.295 136.875,302.234 137.333 C 302.173 137.792,302.065 138.167,301.994 138.167 C 301.922 138.167,301.775 138.692,301.667 139.333 C 301.558 139.975,301.411 140.500,301.340 140.500 C 301.268 140.500,301.160 140.875,301.099 141.333 C 301.038 141.792,300.926 142.167,300.849 142.167 C 300.772 142.167,300.660 142.542,300.599 143.000 C 300.538 143.458,300.407 143.833,300.308 143.833 C 300.205 143.833,300.162 144.014,300.208 144.254 C 300.252 144.485,300.226 144.713,300.149 144.761 C 300.072 144.808,299.960 145.219,299.900 145.674 C 299.840 146.128,299.728 146.500,299.651 146.500 C 299.574 146.500,299.462 146.875,299.401 147.333 C 299.340 147.792,299.228 148.167,299.151 148.167 C 299.074 148.167,298.962 148.542,298.901 149.000 C 298.840 149.458,298.732 149.833,298.660 149.833 C 298.589 149.833,298.442 150.358,298.333 151.000 C 298.225 151.642,298.075 152.167,298.001 152.167 C 297.926 152.167,297.813 152.542,297.750 153.000 C 297.687 153.458,297.572 153.833,297.495 153.833 C 297.417 153.833,297.303 154.190,297.241 154.625 C 297.179 155.060,297.031 155.642,296.912 155.917 C 296.793 156.192,296.645 156.716,296.583 157.083 C 296.520 157.449,296.409 157.787,296.335 157.833 C 296.261 157.879,296.147 158.348,296.081 158.875 L 295.962 159.833 314.467 159.833 C 335.060 159.833,333.443 159.916,333.598 158.860 C 333.661 158.433,333.774 158.044,333.849 157.995 C 333.923 157.946,334.080 157.403,334.197 156.787 C 334.314 156.171,334.465 155.667,334.532 155.667 C 334.600 155.667,334.705 155.292,334.766 154.833 C 334.827 154.375,334.939 154.000,335.016 154.000 C 335.092 154.000,335.205 153.625,335.266 153.167 C 335.327 152.708,335.435 152.333,335.506 152.333 C 335.578 152.333,335.725 151.808,335.833 151.167 C 335.942 150.525,336.089 150.000,336.160 150.000 C 336.232 150.000,336.340 149.625,336.401 149.167 C 336.462 148.708,336.571 148.333,336.643 148.333 C 336.715 148.333,336.876 147.733,337.000 147.000 C 337.124 146.267,337.285 145.667,337.357 145.667 C 337.429 145.667,337.538 145.292,337.599 144.833 C 337.660 144.375,337.772 144.000,337.849 144.000 C 337.926 144.000,338.038 143.625,338.099 143.167 C 338.160 142.708,338.268 142.333,338.340 142.333 C 338.411 142.333,338.558 141.808,338.667 141.167 C 338.775 140.525,338.925 140.000,338.999 140.000 C 339.074 140.000,339.187 139.625,339.250 139.167 C 339.313 138.708,339.426 138.333,339.500 138.333 C 339.574 138.333,339.687 137.958,339.750 137.500 C 339.813 137.042,339.921 136.667,339.989 136.667 C 340.057 136.667,340.207 136.142,340.322 135.500 C 340.436 134.858,340.589 134.333,340.660 134.333 C 340.732 134.333,340.840 133.958,340.901 133.500 C 340.962 133.042,341.074 132.667,341.151 132.667 C 341.228 132.667,341.340 132.295,341.400 131.840 C 341.460 131.386,341.572 130.975,341.648 130.928 C 341.725 130.881,341.888 130.278,342.010 129.588 C 342.133 128.898,342.288 128.333,342.356 128.333 C 342.424 128.333,342.530 127.995,342.592 127.581 C 342.654 127.168,342.765 126.792,342.838 126.747 C 342.910 126.702,343.064 126.141,343.178 125.499 C 343.293 124.858,343.443 124.333,343.511 124.333 C 343.579 124.333,343.687 123.958,343.750 123.500 C 343.813 123.042,343.926 122.667,344.000 122.667 C 344.074 122.667,344.187 122.292,344.250 121.833 C 344.313 121.375,344.422 121.000,344.492 121.000 C 344.562 121.000,344.716 120.438,344.833 119.750 C 344.951 119.063,345.105 118.500,345.175 118.500 C 345.245 118.500,345.354 118.125,345.417 117.667 C 345.480 117.208,345.592 116.833,345.667 116.833 C 345.741 116.833,345.854 116.458,345.917 116.000 C 345.980 115.542,346.087 115.167,346.156 115.167 C 346.224 115.167,346.374 114.642,346.488 114.001 C 346.603 113.359,346.756 112.798,346.829 112.753 C 346.902 112.708,347.012 112.334,347.074 111.923 C 347.135 111.511,347.252 111.133,347.333 111.083 C 347.414 111.033,347.531 110.656,347.593 110.244 C 347.655 109.833,347.765 109.459,347.838 109.414 C 347.910 109.369,348.064 108.807,348.178 108.166 C 348.293 107.525,348.443 107.000,348.511 107.000 C 348.579 107.000,348.687 106.625,348.750 106.167 C 348.813 105.708,348.926 105.333,349.000 105.333 C 349.074 105.333,349.187 104.958,349.250 104.500 C 349.313 104.042,349.426 103.629,349.501 103.583 C 349.575 103.537,349.730 102.974,349.845 102.333 C 349.960 101.691,350.109 101.167,350.178 101.167 C 350.246 101.167,350.354 100.792,350.417 100.333 C 350.480 99.875,350.592 99.500,350.667 99.500 C 350.742 99.500,350.892 98.975,351.000 98.333 C 351.108 97.692,351.255 97.167,351.327 97.167 C 351.398 97.167,351.507 96.792,351.568 96.333 C 351.628 95.875,351.741 95.500,351.818 95.500 C 351.894 95.500,352.006 95.128,352.067 94.674 C 352.127 94.219,352.239 93.808,352.315 93.761 C 352.391 93.714,352.554 93.111,352.677 92.421 C 352.799 91.731,352.957 91.167,353.027 91.167 C 353.098 91.167,353.205 90.792,353.266 90.333 C 353.327 89.875,353.437 89.500,353.511 89.500 C 353.586 89.500,353.699 89.144,353.763 88.708 C 353.827 88.273,353.941 87.877,354.015 87.828 C 354.090 87.780,354.247 87.236,354.364 86.620 C 354.480 86.004,354.631 85.500,354.699 85.500 C 354.767 85.500,354.872 85.125,354.932 84.667 C 354.993 84.208,355.106 83.833,355.182 83.833 C 355.259 83.833,355.372 83.458,355.432 83.000 C 355.493 82.542,355.602 82.167,355.673 82.167 C 355.745 82.167,355.892 81.642,356.000 81.000 C 356.108 80.358,356.255 79.833,356.326 79.833 C 356.398 79.833,356.498 79.523,356.549 79.143 C 356.600 78.763,356.703 78.407,356.779 78.351 C 356.912 78.253,357.019 78.099,357.630 77.126 C 357.788 76.875,358.007 76.668,358.119 76.668 C 358.230 76.667,358.455 76.526,358.619 76.354 C 358.782 76.182,359.104 75.984,359.333 75.915 C 359.563 75.845,359.803 75.705,359.869 75.603 C 359.953 75.471,362.467 75.402,368.492 75.368 L 376.996 75.319 377.189 74.951 C 377.295 74.749,377.596 74.389,377.857 74.152 C 378.119 73.914,378.333 73.668,378.333 73.604 C 378.333 73.540,378.633 73.175,379.000 72.793 C 379.367 72.412,379.667 72.037,379.667 71.961 C 379.667 71.885,379.929 71.593,380.250 71.311 C 380.571 71.029,380.833 70.720,380.833 70.623 C 380.833 70.526,381.044 70.252,381.302 70.015 C 381.560 69.778,381.938 69.342,382.143 69.047 C 382.526 68.494,383.079 67.861,384.088 66.818 C 384.406 66.489,384.667 66.165,384.667 66.099 C 384.667 66.032,384.929 65.702,385.249 65.364 C 385.569 65.026,385.831 64.687,385.832 64.611 C 385.833 64.534,386.096 64.239,386.417 63.955 C 386.738 63.671,387.000 63.367,387.000 63.280 C 387.000 63.193,387.170 62.963,387.378 62.769 C 387.586 62.575,387.980 62.117,388.253 61.750 C 388.526 61.383,388.956 60.898,389.208 60.671 C 389.460 60.445,389.667 60.202,389.667 60.133 C 389.667 60.063,389.910 59.750,390.208 59.437 C 390.506 59.124,390.900 58.659,391.083 58.402 C 391.267 58.145,391.548 57.821,391.708 57.681 C 391.869 57.541,392.000 57.370,392.000 57.302 C 392.000 57.234,392.244 56.919,392.542 56.602 C 393.468 55.618,394.576 54.321,394.739 54.029 C 394.825 53.876,395.107 53.565,395.364 53.338 C 395.622 53.111,395.833 52.869,395.833 52.799 C 395.833 52.730,396.077 52.417,396.375 52.104 C 396.673 51.791,397.067 51.325,397.250 51.069 C 397.433 50.812,397.715 50.487,397.875 50.347 C 398.035 50.207,398.167 50.036,398.167 49.967 C 398.167 49.898,398.485 49.516,398.875 49.118 C 399.600 48.377,400.000 47.802,400.000 47.502 C 400.000 47.341,351.816 47.295,350.292 47.455 M259.811 76.000 C 260.398 76.611,260.513 78.849,259.975 79.182 C 259.870 79.247,259.831 79.420,259.887 79.567 C 259.943 79.713,259.919 79.833,259.834 79.833 C 259.748 79.833,259.628 80.208,259.568 80.667 C 259.507 81.125,259.394 81.500,259.318 81.500 C 259.241 81.500,259.128 81.875,259.068 82.333 C 259.007 82.792,258.894 83.167,258.818 83.167 C 258.741 83.167,258.628 83.542,258.568 84.000 C 258.507 84.458,258.398 84.833,258.327 84.833 C 258.255 84.833,258.108 85.358,258.000 86.000 C 257.892 86.642,257.745 87.167,257.673 87.167 C 257.602 87.167,257.493 87.542,257.432 88.000 C 257.372 88.458,257.263 88.833,257.190 88.833 C 257.118 88.833,256.957 89.433,256.833 90.167 C 256.709 90.900,256.551 91.500,256.481 91.500 C 256.411 91.500,256.303 91.838,256.241 92.252 C 256.179 92.666,256.066 93.042,255.990 93.089 C 255.915 93.136,255.802 93.511,255.740 93.923 C 255.679 94.334,255.569 94.708,255.496 94.753 C 255.423 94.798,255.270 95.359,255.155 96.001 C 255.040 96.642,254.891 97.167,254.822 97.167 C 254.754 97.167,254.646 97.542,254.583 98.000 C 254.520 98.458,254.408 98.833,254.333 98.833 C 254.259 98.833,254.146 99.208,254.083 99.667 C 254.020 100.125,253.892 100.500,253.798 100.500 C 253.705 100.500,253.664 100.688,253.707 100.917 C 253.751 101.146,253.731 101.333,253.662 101.333 C 253.594 101.333,253.487 101.671,253.425 102.083 C 253.364 102.496,253.252 102.833,253.178 102.833 C 253.104 102.833,252.993 103.208,252.932 103.667 C 252.872 104.125,252.758 104.500,252.680 104.500 C 252.602 104.500,252.485 104.856,252.420 105.292 C 252.355 105.727,252.225 106.177,252.131 106.291 C 252.037 106.405,252.000 106.649,252.048 106.833 C 252.096 107.017,252.075 107.129,252.000 107.083 C 251.926 107.037,251.813 107.375,251.750 107.833 C 251.687 108.292,251.574 108.667,251.500 108.667 C 251.426 108.667,251.313 109.042,251.250 109.500 C 251.187 109.958,251.079 110.333,251.011 110.333 C 250.943 110.333,250.793 110.858,250.678 111.499 C 250.564 112.141,250.409 112.703,250.334 112.750 C 250.259 112.796,250.146 113.209,250.083 113.667 C 250.020 114.125,249.908 114.500,249.833 114.500 C 249.759 114.500,249.646 114.875,249.583 115.333 C 249.520 115.792,249.411 116.167,249.340 116.167 C 249.269 116.167,249.111 116.729,248.989 117.417 C 248.867 118.104,248.710 118.667,248.639 118.667 C 248.569 118.667,248.462 119.042,248.401 119.500 C 248.340 119.958,248.228 120.333,248.151 120.333 C 248.074 120.333,247.962 120.708,247.901 121.167 C 247.840 121.625,247.732 122.000,247.660 122.000 C 247.589 122.000,247.442 122.525,247.333 123.167 C 247.225 123.808,247.075 124.333,247.001 124.333 C 246.926 124.333,246.813 124.708,246.750 125.167 C 246.687 125.625,246.576 126.000,246.503 126.000 C 246.431 126.000,246.318 126.356,246.253 126.792 C 246.189 127.227,246.083 127.658,246.019 127.750 C 245.955 127.842,245.802 128.212,245.680 128.572 C 245.557 128.932,245.373 129.329,245.270 129.453 C 244.555 130.316,243.883 130.832,243.325 130.943 C 243.055 130.997,242.833 131.107,242.833 131.188 C 242.833 131.269,238.794 131.333,233.667 131.333 C 227.667 131.333,224.500 131.276,224.500 131.167 C 224.500 131.075,224.572 131.000,224.661 131.000 C 224.749 131.000,224.872 130.625,224.932 130.167 C 224.993 129.708,225.102 129.333,225.173 129.333 C 225.245 129.333,225.392 128.808,225.500 128.167 C 225.608 127.525,225.755 127.000,225.827 127.000 C 225.898 127.000,226.007 126.625,226.068 126.167 C 226.128 125.708,226.248 125.333,226.333 125.333 C 226.419 125.333,226.538 124.958,226.599 124.500 C 226.660 124.042,226.768 123.667,226.840 123.667 C 226.911 123.667,227.058 123.142,227.167 122.500 C 227.275 121.858,227.422 121.333,227.494 121.333 C 227.565 121.333,227.673 120.961,227.733 120.507 C 227.794 120.052,227.907 119.641,227.986 119.592 C 228.064 119.544,228.179 119.167,228.240 118.756 C 228.302 118.344,228.413 117.971,228.487 117.925 C 228.560 117.879,228.721 117.278,228.843 116.588 C 228.966 115.898,229.124 115.333,229.194 115.333 C 229.264 115.333,229.372 114.958,229.432 114.500 C 229.493 114.042,229.602 113.667,229.673 113.667 C 229.745 113.667,229.892 113.142,230.000 112.500 C 230.108 111.858,230.255 111.333,230.327 111.333 C 230.398 111.333,230.507 110.958,230.568 110.500 C 230.628 110.042,230.741 109.667,230.818 109.667 C 230.894 109.667,231.007 109.292,231.068 108.833 C 231.128 108.375,231.237 108.000,231.310 108.000 C 231.382 108.000,231.543 107.400,231.667 106.667 C 231.791 105.933,231.951 105.333,232.024 105.333 C 232.096 105.333,232.205 104.958,232.266 104.500 C 232.327 104.042,232.435 103.667,232.507 103.667 C 232.579 103.667,232.690 103.348,232.754 102.958 C 232.818 102.569,232.934 102.171,233.012 102.075 C 233.089 101.979,233.248 101.397,233.364 100.783 C 233.481 100.169,233.631 99.667,233.699 99.667 C 233.767 99.667,233.872 99.292,233.932 98.833 C 233.993 98.375,234.106 98.000,234.182 98.000 C 234.259 98.000,234.372 97.625,234.432 97.167 C 234.493 96.708,234.602 96.333,234.673 96.333 C 234.745 96.333,234.892 95.808,235.000 95.167 C 235.108 94.525,235.255 94.000,235.327 94.000 C 235.398 94.000,235.507 93.625,235.568 93.167 C 235.628 92.708,235.744 92.333,235.823 92.333 C 235.903 92.333,236.020 91.958,236.083 91.500 C 236.146 91.042,236.259 90.629,236.334 90.583 C 236.409 90.537,236.564 89.974,236.678 89.333 C 236.793 88.691,236.943 88.167,237.011 88.167 C 237.079 88.167,237.187 87.792,237.250 87.333 C 237.313 86.875,237.422 86.500,237.492 86.500 C 237.562 86.500,237.716 85.938,237.833 85.250 C 237.951 84.563,238.105 84.000,238.175 84.000 C 238.245 84.000,238.354 83.625,238.417 83.167 C 238.480 82.708,238.592 82.333,238.667 82.333 C 238.741 82.333,238.854 81.958,238.917 81.500 C 238.980 81.042,239.089 80.667,239.160 80.667 C 239.231 80.667,239.389 80.104,239.511 79.417 C 239.633 78.729,239.788 78.167,239.856 78.167 C 239.924 78.167,240.030 77.829,240.092 77.417 C 240.154 77.004,240.261 76.667,240.331 76.667 C 240.400 76.667,240.506 76.365,240.565 75.996 L 240.672 75.325 249.961 75.371 L 259.251 75.417 259.811 76.000 " stroke="none" fill="#141c24" fill-rule="evenodd"></path><path id="path1" d="" stroke="none" fill="#181c24" fill-rule="evenodd"></path><path id="path2" d="" stroke="none" fill="#181c24" fill-rule="evenodd"></path><path id="path3" d="" stroke="none" fill="#181c24" fill-rule="evenodd"></path><path id="path4" d="" stroke="none" fill="#181c24" fill-rule="evenodd"></path></g></svg>